<?xml version="1.0" encoding="UTF-8" standalone="no"?>
<!-- Created with Inkscape (http://www.inkscape.org/) -->
<svg
   xmlns:svg="http://www.w3.org/2000/svg"
   xmlns="http://www.w3.org/2000/svg"
   xmlns:xlink="http://www.w3.org/1999/xlink"
   id="svg1291"
   height="60.000000"
   width="60.000000"
   y="0.0000000"
   x="0.0000000"
   version="1.0">
  <defs
     id="defs3">
    <linearGradient
       id="linearGradient5234">
      <stop
         id="stop5236"
         offset="0.0000000"
         style="stop-color:#ffffff;stop-opacity:1.0000000;" />
      <stop
         id="stop5238"
         offset="1.0000000"
         style="stop-color:#d9cce6;stop-opacity:1.0000000;" />
    </linearGradient>
    <linearGradient
       id="linearGradient2138">
      <stop
         id="stop2140"
         offset="0.0000000"
         style="stop-color:#d9cce6;stop-opacity:1.0000000;" />
      <stop
         id="stop2142"
         offset="1.0000000"
         style="stop-color:#73667f;stop-opacity:1.0000000;" />
    </linearGradient>
    <linearGradient
       gradientTransform="matrix(0.919753,0.000000,0.000000,0.919631,0.891177,1.044804)"
       gradientUnits="userSpaceOnUse"
       xlink:href="#linearGradient2138"
       id="linearGradient3704"
       y2="57.040970"
       x2="51.379238"
       y1="3.5595675"
       x1="1.7733183" />
    <linearGradient
       gradientTransform="matrix(0.919753,0.000000,0.000000,0.919631,-61.10882,1.044804)"
       gradientUnits="userSpaceOnUse"
       xlink:href="#linearGradient2138"
       id="linearGradient4469"
       y2="57.040970"
       x2="51.379238"
       y1="3.5595675"
       x1="1.7733183" />
    <linearGradient
       gradientTransform="matrix(0.919753,0.000000,0.000000,0.919631,-57.10882,3.044804)"
       gradientUnits="userSpaceOnUse"
       xlink:href="#linearGradient2138"
       id="linearGradient4473"
       y2="57.040970"
       x2="51.379238"
       y1="3.5595675"
       x1="1.7733183" />
    <linearGradient
       gradientTransform="matrix(0.919753,0.000000,0.000000,0.919631,0.797430,0.826054)"
       gradientUnits="userSpaceOnUse"
       xlink:href="#linearGradient5234"
       id="linearGradient5240"
       y2="57.040970"
       x2="51.379238"
       y1="3.5595675"
       x1="1.7733183" />
  </defs>
  <g
     id="layer1">
    <path
       id="path2927"
       style="fill:#000000;fill-opacity:0.33333334;stroke:none;stroke-width:1.8732061;stroke-miterlimit:4.0000000;stroke-opacity:1.0000000"
       d="M 11.436033,59.168467 C 11.093878,57.465209 14.128319,49.998285 17.603638,44.996185 C 17.851941,44.638798 17.744190,44.360138 17.065859,43.605418 C 13.077285,39.167680 11.819316,37.291297 10.015070,33.088480 C 8.8815559,30.448071 7.6874000,26.778904 7.3772280,24.983441 C 7.2270544,24.114148 7.3067239,23.920629 8.0356760,23.384059 C 8.9790695,22.689645 9.6100970,22.972783 9.9392831,23.565923 C 10.465980,24.614176 13.164376,28.359426 14.775452,30.114450 C 16.414451,31.899893 21.342139,35.912040 22.814503,36.659879 C 24.497904,37.514915 26.772547,37.165368 29.092939,36.276806 C 34.016372,34.391439 38.524579,34.109579 43.265016,34.975767 C 45.132319,35.316967 45.657846,35.544203 46.533760,35.309378 C 48.113770,34.885798 51.721788,31.703501 53.507030,29.158910 C 55.042124,26.970868 56.941188,22.891533 56.941188,21.782077 C 56.941188,20.917367 57.865596,20.395874 58.419989,20.947832 C 58.982396,21.507766 59.570812,26.289220 59.333889,28.374142 C 59.001571,31.298549 57.147814,35.503194 55.010721,38.179846 C 54.535882,38.774574 53.714139,39.427313 55.626152,41.621141 C 56.893968,43.010803 57.927282,44.456301 58.449577,45.497359 C 59.997818,48.583387 60.430848,50.780413 59.547869,51.069685 C 59.368115,51.128572 58.393578,50.477876 57.382228,49.623693 C 54.072933,46.828671 53.278375,46.470907 46.464389,44.707732 C 36.971752,42.251435 29.302602,43.566096 22.736911,48.775136 C 20.186738,50.798376 15.143285,55.767243 13.553281,58.133310 C 12.859341,59.165955 12.137150,60.010845 11.948413,60.010845 C 11.759674,60.010845 11.529104,59.631777 11.436033,59.168467 z M 28.201018,25.422301 C 27.273363,25.154449 25.717807,24.508359 25.129589,24.125597 C 23.962591,23.393738 21.459754,21.146409 21.459754,20.365914 C 21.459754,19.599561 21.474045,19.597713 23.250291,20.134188 C 25.101374,20.693266 27.031085,20.649082 29.669542,19.987208 C 32.292627,19.329189 33.608297,18.562588 34.436385,17.474671 C 34.763982,16.946940 35.015868,16.376107 35.138381,16.376107 C 35.260890,16.376107 36.022032,16.953249 36.915150,17.488693 C 38.136507,18.133209 38.858560,18.322583 40.301561,18.319135 C 42.681327,18.313444 45.676842,17.221440 46.667710,15.998387 C 46.933199,15.670689 47.153211,15.324925 47.156628,15.230025 C 47.168386,14.903425 42.827966,13.516858 40.178306,13.000771 C 34.382234,11.871841 23.423960,12.878355 14.195840,15.387254 C 12.736073,15.784130 10.720119,16.290209 9.7159420,16.511875 C 8.7117661,16.733541 7.3425284,17.107272 6.6731915,17.342390 C 5.3497296,17.807283 4.6968739,17.579408 4.6968739,16.652570 C 4.8285482,15.645779 8.0367265,13.587790 8.7847564,12.899567 C 12.377240,9.5943089 23.089816,5.6655345 30.399960,4.9723190 C 38.598928,4.1948171 45.662610,5.1328612 51.213871,7.7363681 C 54.804417,9.4203138 57.118262,12.049663 57.620144,15.016169 C 57.841174,16.322631 56.919135,18.758197 55.640485,20.245448 C 54.589507,21.467881 51.478201,23.735955 49.956655,24.388832 C 48.615634,24.964251 46.116473,25.592408 44.062969,25.610056 C 42.932613,25.623172 40.946047,25.021922 39.923693,24.436682 L 38.185543,23.318202 L 37.088682,24.391994 C 36.485406,24.906106 35.504827,25.332960 34.909610,25.510504 C 33.368573,25.970181 30.179066,25.993451 28.201018,25.422301 z " />
    <path
       id="path1368"
       style="fill:url(#linearGradient3704);fill-opacity:1.0000000;stroke:#261933;stroke-width:1.7822020;stroke-miterlimit:4.0000000;stroke-opacity:1.0000000"
       d="M 7.6303372,55.362819 C 7.2881818,53.659561 10.322623,46.192637 13.797942,41.190537 C 14.046245,40.833150 13.938494,40.554490 13.260163,39.799770 C 9.2715885,35.362032 8.0136200,33.485649 6.2093734,29.282832 C 5.0758599,26.642423 3.8817040,22.973256 3.5715320,21.177793 C 3.4213584,20.308500 3.5010279,20.114981 4.2299800,19.578411 C 5.1733735,18.883997 5.8044010,19.167135 6.1335868,19.760275 C 6.6602840,20.808528 9.3586799,24.553778 10.969756,26.308802 C 12.608755,28.094245 17.536443,32.106392 19.008807,32.854231 C 20.692208,33.709267 22.966851,33.359720 25.287243,32.471158 C 30.210676,30.585791 34.718883,30.303931 39.459320,31.170119 C 41.326623,31.511319 41.852150,31.738555 42.728064,31.503730 C 44.308074,31.080150 47.916092,27.897853 49.701334,25.353262 C 51.236428,23.165220 53.135492,19.085885 53.135492,17.976429 C 53.135492,17.111719 54.059900,16.590226 54.614293,17.142184 C 55.176700,17.702118 55.765116,22.483572 55.528193,24.568494 C 55.195875,27.492901 53.342118,31.697546 51.205025,34.374198 C 50.730186,34.968926 49.908443,35.621665 51.820456,37.815493 C 53.088272,39.205155 54.121586,40.650653 54.643881,41.691711 C 56.192122,44.777739 56.625152,46.974765 55.742173,47.264037 C 55.562419,47.322924 54.587882,46.672228 53.576532,45.818045 C 50.267237,43.023023 49.472679,42.665259 42.658693,40.902084 C 33.166056,38.445787 25.496906,39.760448 18.931215,44.969488 C 16.381042,46.992728 11.337589,51.961595 9.7475854,54.327662 C 9.0536450,55.360307 8.3314540,56.205197 8.1427164,56.205197 C 7.9539785,56.205197 7.7234079,55.826129 7.6303372,55.362819 z M 24.395322,21.616653 C 23.467667,21.348801 21.912111,20.702711 21.323893,20.319949 C 20.156895,19.588090 17.654058,17.340761 17.654058,16.560266 C 17.654058,15.793913 17.668349,15.792065 19.444595,16.328540 C 21.295678,16.887618 23.225389,16.843434 25.863846,16.181560 C 28.486931,15.523541 29.802601,14.756940 30.630689,13.669023 C 30.958286,13.141292 31.210172,12.570459 31.332685,12.570459 C 31.455194,12.570459 32.216336,13.147601 33.109454,13.683045 C 34.330811,14.327561 35.052864,14.516935 36.495865,14.513487 C 38.875631,14.507796 41.871146,13.415792 42.862014,12.192739 C 43.127503,11.865041 43.347515,11.519277 43.350932,11.424377 C 43.362690,11.097777 39.022270,9.7112099 36.372610,9.1951232 C 30.576538,8.0661926 19.618264,9.0727063 10.390144,11.581606 C 8.9303768,11.978482 6.9144225,12.484561 5.9102462,12.706227 C 4.9060701,12.927893 3.5368324,13.301624 2.8674955,13.536742 C 1.5440336,14.001635 0.89117796,13.773760 0.89117796,12.846922 C 1.0228522,11.840131 4.2310305,9.7821424 4.9790604,9.0939184 C 8.5715448,5.7886611 19.284120,1.8598865 26.594264,1.1666710 C 34.793232,0.38916906 41.856914,1.3272132 47.408175,3.9307201 C 50.998721,5.6146658 53.312566,8.2440146 53.814448,11.210521 C 54.035478,12.516983 53.113439,14.952549 51.834789,16.439800 C 50.783811,17.662233 47.672505,19.930307 46.150959,20.583184 C 44.809938,21.158603 42.310777,21.786760 40.257273,21.804408 C 39.126917,21.817524 37.140351,21.216274 36.117997,20.631034 L 34.379847,19.512554 L 33.282986,20.586346 C 32.679710,21.100458 31.699131,21.527312 31.103914,21.704856 C 29.562877,22.164533 26.373370,22.187803 24.395322,21.616653 z " />
    <path
       id="path4467"
       style="fill:url(#linearGradient5240);fill-opacity:1.0000000;stroke:none;stroke-width:1.7822020;stroke-miterlimit:4.0000000;stroke-opacity:1.0000000"
       d="M 32.437500,0.68750000 C 30.535562,0.66821478 28.549742,0.74312451 26.500000,0.93750000 C 19.189856,1.6307155 8.4674840,5.5697423 4.8750000,8.8750000 C 4.1269700,9.5632240 0.94417400,11.618209 0.81250000,12.625000 C 0.81250000,13.551838 1.4577880,13.777393 2.7812500,13.312500 C 3.4505860,13.077382 4.8083220,12.721666 5.8125000,12.500000 C 6.1362200,12.428541 6.7685150,12.242387 7.2500000,12.125000 C 7.8978210,11.635810 8.6059970,11.122496 8.8750000,10.875000 C 12.467484,7.5697433 23.189856,3.6307155 30.500000,2.9375000 C 37.932892,2.2326446 44.370439,3.0160480 49.656250,5.0937500 C 48.948856,4.5889494 48.174450,4.1229996 47.312500,3.7187500 C 43.149054,1.7661198 38.143315,0.74535566 32.437500,0.68750000 z M 42.875000,11.812500 C 42.825666,11.879186 42.835939,11.901247 42.781250,11.968750 C 41.790382,13.191803 38.786016,14.275559 36.406250,14.281250 C 34.963249,14.284698 34.252608,14.113266 33.031250,13.468750 C 32.138132,12.933306 31.372509,12.343750 31.250000,12.343750 C 31.127487,12.343750 30.858846,12.909769 30.531250,13.437500 C 29.703162,14.525417 28.404335,15.310730 25.781250,15.968750 C 23.142793,16.630624 21.194833,16.684077 19.343750,16.125000 C 17.567504,15.588525 17.562501,15.577397 17.562500,16.343750 C 17.562500,17.124245 19.692504,16.963525 21.468750,17.500000 C 23.319833,18.059077 24.767793,18.193124 27.406250,17.531250 C 30.029335,16.873230 32.390662,15.337917 33.218750,14.250000 C 33.546346,13.722269 35.127487,14.343750 35.250000,14.343750 C 35.372509,14.343750 37.275749,16.159698 38.718750,16.156250 C 42.348516,14.838059 42.415382,13.629303 43.406250,12.406250 C 43.671739,12.078552 44.802059,12.375227 42.875000,11.812500 z M 54.125000,17.125000 C 53.224881,17.969970 52.977328,20.532649 51.750000,21.312500 C 51.105735,22.661069 50.308775,24.105840 49.593750,25.125000 C 47.808508,27.669591 44.205010,30.857669 42.625000,31.281250 C 41.749086,31.516075 41.242303,31.278701 39.375000,30.937500 C 34.634563,30.071312 38.634563,32.071312 43.375000,32.937500 C 45.242303,33.278699 48.999086,30.016075 49.875000,29.781250 C 51.455010,29.357669 54.440404,18.720914 54.125000,17.125000 z " />
    <path
       id="path5242"
       style="fill:none;fill-opacity:1.0000000;stroke:#261933;stroke-width:1.7822020;stroke-miterlimit:4.0000000;stroke-opacity:1.0000000"
       d="M 7.6303372,55.362819 C 7.2881818,53.659561 10.322623,46.192637 13.797942,41.190537 C 14.046245,40.833150 13.938494,40.554490 13.260163,39.799770 C 9.2715885,35.362032 8.0136200,33.485649 6.2093734,29.282832 C 5.0758599,26.642423 3.8817040,22.973256 3.5715320,21.177793 C 3.4213584,20.308500 3.5010279,20.114981 4.2299800,19.578411 C 5.1733735,18.883997 5.8044010,19.167135 6.1335868,19.760275 C 6.6602840,20.808528 9.3586799,24.553778 10.969756,26.308802 C 12.608755,28.094245 17.536443,32.106392 19.008807,32.854231 C 20.692208,33.709267 22.966851,33.359720 25.287243,32.471158 C 30.210676,30.585791 34.718883,30.303931 39.459320,31.170119 C 41.326623,31.511319 41.852150,31.738555 42.728064,31.503730 C 44.308074,31.080150 47.916092,27.897853 49.701334,25.353262 C 51.236428,23.165220 53.135492,19.085885 53.135492,17.976429 C 53.135492,17.111719 54.059900,16.590226 54.614293,17.142184 C 55.176700,17.702118 55.765116,22.483572 55.528193,24.568494 C 55.195875,27.492901 53.342118,31.697546 51.205025,34.374198 C 50.730186,34.968926 49.908443,35.621665 51.820456,37.815493 C 53.088272,39.205155 54.121586,40.650653 54.643881,41.691711 C 56.192122,44.777739 56.625152,46.974765 55.742173,47.264037 C 55.562419,47.322924 54.587882,46.672228 53.576532,45.818045 C 50.267237,43.023023 49.472679,42.665259 42.658693,40.902084 C 33.166056,38.445787 25.496906,39.760448 18.931215,44.969488 C 16.381042,46.992728 11.337589,51.961595 9.7475854,54.327662 C 9.0536450,55.360307 8.3314540,56.205197 8.1427164,56.205197 C 7.9539785,56.205197 7.7234079,55.826129 7.6303372,55.362819 z M 24.395322,21.616653 C 23.467667,21.348801 21.912111,20.702711 21.323893,20.319949 C 20.156895,19.588090 17.654058,17.340761 17.654058,16.560266 C 17.654058,15.793913 17.668349,15.792065 19.444595,16.328540 C 21.295678,16.887618 23.225389,16.843434 25.863846,16.181560 C 28.486931,15.523541 29.802601,14.756940 30.630689,13.669023 C 30.958286,13.141292 31.210172,12.570459 31.332685,12.570459 C 31.455194,12.570459 32.216336,13.147601 33.109454,13.683045 C 34.330811,14.327561 35.052864,14.516935 36.495865,14.513487 C 38.875631,14.507796 41.871146,13.415792 42.862014,12.192739 C 43.127503,11.865041 43.347515,11.519277 43.350932,11.424377 C 43.362690,11.097777 39.022270,9.7112099 36.372610,9.1951232 C 30.576538,8.0661926 19.618264,9.0727063 10.390144,11.581606 C 8.9303768,11.978482 6.9144225,12.484561 5.9102462,12.706227 C 4.9060701,12.927893 3.5368324,13.301624 2.8674955,13.536742 C 1.5440336,14.001635 0.89117796,13.773760 0.89117796,12.846922 C 1.0228522,11.840131 4.2310305,9.7821424 4.9790604,9.0939184 C 8.5715448,5.7886611 19.284120,1.8598865 26.594264,1.1666710 C 34.793232,0.38916906 41.856914,1.3272132 47.408175,3.9307201 C 50.998721,5.6146658 53.312566,8.2440146 53.814448,11.210521 C 54.035478,12.516983 53.113439,14.952549 51.834789,16.439800 C 50.783811,17.662233 47.672505,19.930307 46.150959,20.583184 C 44.809938,21.158603 42.310777,21.786760 40.257273,21.804408 C 39.126917,21.817524 37.140351,21.216274 36.117997,20.631034 L 34.379847,19.512554 L 33.282986,20.586346 C 32.679710,21.100458 31.699131,21.527312 31.103914,21.704856 C 29.562877,22.164533 26.373370,22.187803 24.395322,21.616653 z " />
  </g>
</svg>
