<?xml version="1.0" encoding="UTF-8" standalone="no"?>
<!-- Created with Inkscape (http://www.inkscape.org/) -->
<svg
   xmlns:svg="http://www.w3.org/2000/svg"
   xmlns="http://www.w3.org/2000/svg"
   xmlns:xlink="http://www.w3.org/1999/xlink"
   id="svg1275"
   height="60.000000"
   width="60.000000"
   y="0.0000000"
   x="0.0000000"
   version="1.0">
  <defs
     id="defs3">
    <linearGradient
       id="linearGradient3373">
      <stop
         id="stop3375"
         offset="0.0000000"
         style="stop-color:#ffffff;stop-opacity:1.0000000;" />
      <stop
         id="stop3377"
         offset="1.0000000"
         style="stop-color:#000000;stop-opacity:0.0000000;" />
    </linearGradient>
    <linearGradient
       id="linearGradient2540">
      <stop
         id="stop2542"
         offset="0.0000000"
         style="stop-color:#ffffff;stop-opacity:1.0000000;" />
      <stop
         id="stop2544"
         offset="1.0000000"
         style="stop-color:#d9cce6;stop-opacity:1.0000000;" />
    </linearGradient>
    <linearGradient
       id="linearGradient2383">
      <stop
         id="stop2385"
         offset="0.0000000"
         style="stop-color:#d9cce6;stop-opacity:1.0000000;" />
      <stop
         id="stop2387"
         offset="1.0000000"
         style="stop-color:#73667f;stop-opacity:1.0000000;" />
    </linearGradient>
    <linearGradient
       id="linearGradient2439">
      <stop
         id="stop2441"
         offset="0.0000000"
         style="stop-color:#002200;stop-opacity:1.0000000;" />
      <stop
         id="stop2443"
         offset="1.0000000"
         style="stop-color:#508350;stop-opacity:1.0000000;" />
    </linearGradient>
    <linearGradient
       gradientTransform="matrix(0.632356,0.000000,0.000000,0.632356,-13.67091,-184.4702)"
       gradientUnits="userSpaceOnUse"
       xlink:href="#linearGradient2439"
       id="linearGradient3207"
       y2="444.66751"
       x2="129.66743"
       y1="330.76971"
       x1="129.06119" />
    <linearGradient
       gradientTransform="matrix(0.995842,0.000000,0.000000,0.995842,56.75726,39.54780)"
       gradientUnits="userSpaceOnUse"
       xlink:href="#linearGradient2383"
       id="linearGradient2434"
       y2="84.711372"
       x2="65.857155"
       y1="-24.629734"
       x1="-43.934826" />
    <linearGradient
       gradientTransform="matrix(0.995842,0.000000,0.000000,0.995842,-1.818949e-3,0.527042)"
       gradientUnits="userSpaceOnUse"
       xlink:href="#linearGradient2540"
       id="linearGradient2546"
       y2="100.00000"
       x2="105.50000"
       y1="12.500000"
       x1="23.000000" />
    <linearGradient
       gradientTransform="matrix(0.995842,0.000000,0.000000,0.995842,56.75726,39.54780)"
       gradientUnits="userSpaceOnUse"
       xlink:href="#linearGradient2383"
       id="linearGradient3319"
       y2="84.711372"
       x2="65.857155"
       y1="-24.629734"
       x1="-43.934826" />
    <linearGradient
       gradientTransform="matrix(0.995842,0.000000,0.000000,0.995842,-1.818949e-3,0.527042)"
       gradientUnits="userSpaceOnUse"
       xlink:href="#linearGradient2540"
       id="linearGradient3321"
       y2="100.00000"
       x2="105.50000"
       y1="12.500000"
       x1="23.000000" />
    <linearGradient
       gradientTransform="matrix(0.995842,0.000000,0.000000,0.995842,0.435683,0.669235)"
       gradientUnits="userSpaceOnUse"
       xlink:href="#linearGradient2540"
       id="linearGradient3325"
       y2="100.00000"
       x2="105.50000"
       y1="12.500000"
       x1="23.000000" />
    <linearGradient
       gradientTransform="matrix(0.995842,0.000000,0.000000,0.995842,57.19476,39.68999)"
       gradientUnits="userSpaceOnUse"
       xlink:href="#linearGradient2383"
       id="linearGradient3328"
       y2="84.711372"
       x2="65.857155"
       y1="-24.629734"
       x1="-43.934826" />
    <linearGradient
       gradientTransform="matrix(0.995842,0.000000,0.000000,0.995842,57.19476,39.68999)"
       gradientUnits="userSpaceOnUse"
       xlink:href="#linearGradient2383"
       id="linearGradient3337"
       y2="84.711372"
       x2="65.857155"
       y1="-24.629734"
       x1="-43.934826" />
    <linearGradient
       gradientTransform="matrix(0.995842,0.000000,0.000000,0.995842,0.435683,0.669235)"
       gradientUnits="userSpaceOnUse"
       xlink:href="#linearGradient2540"
       id="linearGradient3339"
       y2="100.00000"
       x2="105.50000"
       y1="12.500000"
       x1="23.000000" />
    <linearGradient
       gradientUnits="userSpaceOnUse"
       xlink:href="#linearGradient2540"
       id="linearGradient3357"
       y2="49.393398"
       x2="35.708893"
       y1="35.781590"
       x1="20.329321" />
    <linearGradient
       gradientTransform="matrix(0.466801,0.000000,0.000000,0.466801,0.204227,0.313705)"
       gradientUnits="userSpaceOnUse"
       xlink:href="#linearGradient3373"
       id="linearGradient3367"
       y2="100.00000"
       x2="105.50000"
       y1="12.500000"
       x1="23.000000" />
    <linearGradient
       gradientTransform="matrix(0.466801,0.000000,0.000000,0.466801,26.81004,18.60468)"
       gradientUnits="userSpaceOnUse"
       xlink:href="#linearGradient2383"
       id="linearGradient3370"
       y2="84.711372"
       x2="65.857155"
       y1="-24.629734"
       x1="-43.934826" />
  </defs>
  <g
     id="layer2">
    <path
       id="path2412"
       style="fill:#000000;fill-opacity:0.29411766;stroke:none;stroke-opacity:1.0000000"
       d="M 26.179065,5.0527489 C 18.228633,5.6676369 8.3983028,6.9386038 4.0610123,14.149692 C 2.2477532,17.164373 7.1890211,23.256159 8.7672733,21.833383 C 10.675547,20.113093 10.904130,13.689480 14.997413,11.886026 C 22.519366,8.5719416 30.981587,8.3950016 38.896055,9.2501183 C 44.601340,9.8665447 51.727712,10.441991 55.226157,15.192478 C 57.723469,18.583525 52.416104,21.882536 48.901969,22.153007 C 43.844755,22.542243 39.487009,17.900958 36.071819,16.002010 C 33.992083,14.845615 31.021293,21.005805 27.465103,19.370135 C 24.653919,18.077130 21.845383,13.472294 20.018390,14.039924 C 18.029394,14.657889 20.013432,20.392453 23.044306,21.918860 C 27.138331,23.980690 31.896482,22.604728 36.126702,22.052917 C 40.201249,21.521413 44.093536,26.023970 48.828737,25.263758 C 53.807537,24.464438 60.571543,21.435276 59.718422,15.716293 C 58.821638,9.7046324 51.790683,8.1085977 46.815268,6.6718124 C 40.141446,4.7445692 33.069314,4.5198553 26.179065,5.0527489 z M 7.2030934,24.605000 C 4.3676267,25.129939 3.4416672,29.120188 3.4371975,31.723997 C 3.4246358,39.042856 1.6871027,47.619066 6.4621656,53.706985 C 11.541038,60.182237 21.122382,59.564921 28.731149,59.387424 C 36.349154,59.209707 44.377693,60.298660 51.617569,57.507666 C 57.293504,55.319574 60.400069,49.120970 59.958554,43.142062 C 59.632979,38.733147 60.814196,33.644157 58.395197,29.789926 C 56.838971,27.310367 53.965693,29.779678 52.227104,30.946609 C 48.882019,33.191813 45.176515,34.517934 41.119185,34.569696 C 33.878811,34.662066 26.598775,34.361541 19.373236,34.020140 C 14.956795,33.811466 10.181468,31.429332 9.5082011,26.525923 C 9.3652623,25.484905 8.3272614,24.396880 7.2030934,24.605000 z " />
    <path
       id="path2426"
       style="fill:url(#linearGradient3370);fill-opacity:1.0000000;stroke:none;stroke-width:1.8750000;stroke-miterlimit:4.0000000;stroke-opacity:1.0000000"
       d="M 23.497902,1.1989411 C 15.547472,1.8138293 5.7171409,3.0847957 1.3798507,10.295884 C -0.43340842,13.310565 4.5078598,19.402351 6.0861123,17.979576 C 7.9943893,16.259286 8.2229687,9.8356719 12.316251,8.0322186 C 19.838204,4.7181336 28.300425,4.5411943 36.214893,5.3963108 C 41.920178,6.0127367 49.046546,6.5881827 52.545001,11.338671 C 55.042304,14.729717 49.734938,18.028728 46.220808,18.299200 C 41.163594,18.688436 36.805847,14.047150 33.390657,12.148203 C 31.310922,10.991807 28.340132,17.151998 24.783941,15.516328 C 21.972760,14.223323 19.164221,9.6184864 17.337228,10.186116 C 15.348232,10.804081 17.332271,16.538645 20.363145,18.065052 C 24.457170,20.126882 29.215322,18.750921 33.445540,18.199110 C 37.520087,17.667606 41.412375,22.170163 46.147580,21.409950 C 51.126366,20.610631 57.890377,17.581468 57.037252,11.862485 C 56.140472,5.8508249 49.109522,4.2547903 44.134105,2.8180049 C 37.460284,0.89076183 30.388152,0.66604795 23.497902,1.1989411 z M 4.5219320,20.751193 C 1.6864653,21.276131 0.76050547,25.266381 0.75603585,27.870191 C 0.74347424,35.189051 -0.99405897,43.765265 3.7810042,49.853176 C 8.8598809,56.328427 18.441221,55.711116 26.049987,55.533620 C 33.667992,55.355907 41.696531,56.444860 48.936404,53.653857 C 54.612338,51.465774 57.718904,45.267163 57.277393,39.288254 C 56.951818,34.879338 58.133035,29.790350 55.714032,25.936118 C 54.157810,23.456560 51.284527,25.925871 49.545947,27.092801 C 46.200861,29.338005 42.495353,30.664127 38.438023,30.715888 C 31.197649,30.808258 23.917612,30.507734 16.692075,30.166332 C 12.275633,29.957657 7.5003109,27.575525 6.8270397,22.672116 C 6.6841009,21.631097 5.6461000,20.543072 4.5219320,20.751193 z " />
    <path
       id="path2477"
       style="fill:url(#linearGradient3367);fill-opacity:1.0000000;fill-rule:evenodd;stroke:none;stroke-width:1.0000000px;stroke-linecap:butt;stroke-linejoin:miter;stroke-opacity:1.0000000"
       d="M 27.249517,1.0284941 C 25.997607,1.0697617 24.743993,1.1073741 23.500521,1.2035445 C 15.550090,1.8184327 5.7231076,3.0804909 1.3858174,10.291579 C 0.53937899,11.698847 1.1783610,13.770050 2.2464820,15.440979 C 2.7854160,15.061900 3.1988119,14.456767 3.2092593,13.661300 C 3.2716816,8.9084535 8.7054826,6.1843855 12.734920,4.6024402 C 17.304172,2.8085652 23.136812,3.5369846 27.030704,1.4515326 C 27.213726,1.3535114 27.264190,1.2040006 27.249517,1.0284941 z M 32.573968,12.027496 C 30.987563,12.328948 28.979495,15.157629 26.680603,15.659792 C 28.120398,16.154584 30.241445,16.087350 31.202740,14.974178 C 31.776780,14.309442 32.973984,13.379241 33.959784,12.523472 C 33.776784,12.410758 33.568787,12.243124 33.390870,12.144196 C 33.130903,11.999646 32.861183,11.972918 32.573968,12.027496 z M 52.981927,12.275484 C 53.812346,14.743733 50.974168,16.909394 48.138868,17.804159 C 50.624227,17.822188 53.300490,16.949243 53.769657,14.434439 C 53.949638,13.469692 53.581866,12.778923 52.981927,12.275484 z M 4.5221375,20.750841 C 1.6866705,21.275780 0.76302299,25.265749 0.75855336,27.869559 C 0.75068628,32.453223 0.066892038,37.530029 0.72937832,42.179931 C 2.6728978,36.038384 0.37993362,28.855371 3.7635856,23.420360 C 4.1824026,22.747633 5.2943190,22.029205 6.1267665,21.363518 C 5.6965825,20.926724 5.1329659,20.637757 4.5221375,20.750841 z M 53.536257,24.908289 C 52.161732,25.128921 50.625887,26.367088 49.539272,27.096419 C 46.194187,29.341623 42.495487,30.662367 38.438157,30.714128 C 34.055120,30.770046 29.656829,30.663855 25.265612,30.509903 C 25.785497,30.711273 26.450571,31.046930 26.782716,31.122579 C 32.959983,32.529522 39.791422,34.342042 45.921562,32.099944 C 49.065699,30.949976 53.045682,28.232390 53.594607,24.908289 C 53.574676,24.911063 53.556249,24.905080 53.536257,24.908289 z " />
    <path
       id="path2548"
       style="fill:none;fill-opacity:1.0000000;stroke:#000000;stroke-width:1.8750000;stroke-miterlimit:4.0000000;stroke-opacity:1.0000000"
       d="M 23.497902,1.1989411 C 15.547472,1.8138293 5.7171409,3.0847957 1.3798507,10.295884 C -0.43340842,13.310565 4.5078598,19.402351 6.0861123,17.979576 C 7.9943893,16.259286 8.2229687,9.8356719 12.316251,8.0322186 C 19.838204,4.7181336 28.300425,4.5411943 36.214893,5.3963108 C 41.920178,6.0127367 49.046546,6.5881827 52.545001,11.338671 C 55.042304,14.729717 49.734938,18.028728 46.220808,18.299200 C 41.163594,18.688436 36.805847,14.047150 33.390657,12.148203 C 31.310922,10.991807 28.340132,17.151998 24.783941,15.516328 C 21.972760,14.223323 19.164221,9.6184864 17.337228,10.186116 C 15.348232,10.804081 17.332271,16.538645 20.363145,18.065052 C 24.457170,20.126882 29.215322,18.750921 33.445540,18.199110 C 37.520087,17.667606 41.412375,22.170163 46.147580,21.409950 C 51.126366,20.610631 57.890377,17.581468 57.037252,11.862485 C 56.140472,5.8508249 49.109522,4.2547903 44.134105,2.8180049 C 37.460284,0.89076183 30.388152,0.66604795 23.497902,1.1989411 z M 4.5219320,20.751193 C 1.6864653,21.276131 0.76050547,25.266381 0.75603585,27.870191 C 0.74347424,35.189051 -0.99405897,43.765265 3.7810042,49.853176 C 8.8598809,56.328427 18.441221,55.711116 26.049987,55.533620 C 33.667992,55.355907 41.696531,56.444860 48.936404,53.653857 C 54.612338,51.465774 57.718904,45.267163 57.277393,39.288254 C 56.951818,34.879338 58.133035,29.790350 55.714032,25.936118 C 54.157810,23.456560 51.284527,25.925871 49.545947,27.092801 C 46.200861,29.338005 42.495353,30.664127 38.438023,30.715888 C 31.197649,30.808258 23.917612,30.507734 16.692075,30.166332 C 12.275633,29.957657 7.5003109,27.575525 6.8270397,22.672116 C 6.6841009,21.631097 5.6461000,20.543072 4.5219320,20.751193 z " />
    <path
       id="text3341"
       style="font-size:84.568108;font-style:normal;font-weight:normal;fill:url(#linearGradient3357);fill-opacity:1.0000000;stroke:#000000;stroke-width:0.25000000;stroke-linecap:butt;stroke-linejoin:round;stroke-miterlimit:4.0000000;stroke-opacity:1.0000000;font-family:Bitstream Vera Sans"
       d="M 32.797855,34.794532 C 31.702536,36.153469 28.984254,34.944407 27.221498,35.478656 C 25.080140,35.626904 27.906792,37.170057 29.185157,36.741656 C 28.945206,37.347724 25.049336,37.090916 26.321036,38.230190 C 27.907011,39.015405 28.211262,37.628775 28.371485,39.440564 C 28.639659,40.660493 27.811713,41.110252 28.469128,42.192097 C 28.161499,43.648004 28.225352,45.297279 28.349788,46.762950 C 29.425114,48.348920 31.080829,46.321735 30.073475,45.354421 C 28.957477,44.039882 30.949346,43.108773 32.699430,43.547598 C 35.024339,43.702732 37.620857,43.468006 39.795424,43.846024 C 39.642050,44.899307 39.270145,45.857006 37.723408,46.266698 C 34.709081,47.133974 38.780497,47.699699 39.979856,47.033592 C 42.762051,45.376040 40.541127,42.497824 41.715687,40.402848 C 42.110294,39.115333 42.056645,36.940556 39.404899,37.090962 C 36.799582,37.425068 34.145606,37.586442 31.474284,37.478404 C 34.006119,36.010040 37.558077,36.962336 40.575061,36.798953 C 42.176447,36.943342 44.315610,36.770967 42.692090,35.568871 C 39.730595,34.750176 35.680526,36.442188 33.336919,34.343643 C 33.080391,34.045984 32.972998,34.730849 32.797855,34.794532 z M 19.627238,34.403604 C 17.450964,34.372566 17.339174,36.517084 17.425209,37.665397 C 17.915789,40.688918 17.621478,43.726087 17.858860,46.755431 C 19.586114,48.062586 20.218286,45.979461 19.823967,44.990085 C 19.889668,42.149115 19.479544,39.190579 19.822520,36.425906 C 20.975441,36.142140 23.086926,36.145152 23.966816,36.365763 C 23.396545,37.761657 20.342005,38.351653 20.744679,39.876599 C 22.051142,40.657376 25.056005,40.918176 24.650298,42.492811 C 23.056939,42.825923 20.973444,44.436523 23.933980,44.298257 C 27.390709,44.285453 27.508314,40.556552 24.411622,39.974331 C 22.349588,39.467790 24.083653,38.173806 25.040861,37.583654 C 26.202526,36.891593 26.828178,35.104896 24.682845,35.012549 C 22.914247,35.207254 21.196714,34.900089 19.627238,34.403604 z M 35.965746,38.726367 C 37.054012,38.904700 40.911052,38.385036 39.459706,39.692880 C 37.739329,40.097324 35.458524,39.643977 33.524735,39.906670 C 32.069766,39.913824 29.460958,39.995934 29.879489,39.019564 C 31.813327,38.560226 33.952741,38.851847 35.965746,38.726367 z M 34.577083,41.094491 C 36.314200,41.257916 38.316430,40.829920 39.871365,41.417758 C 39.723221,43.142610 36.640561,42.124931 35.076134,42.372526 C 33.331413,42.389152 31.286099,42.743881 29.749302,42.056776 C 29.816883,40.724540 32.731844,41.303714 34.388397,41.099384 L 34.544536,41.094491 L 34.577083,41.094491 z M 31.289853,47.725234 C 30.336126,47.638205 28.971048,47.703303 28.534221,48.581759 C 24.935988,48.579685 21.337758,48.575311 17.739522,48.574751 C 18.174411,50.225352 20.679638,50.104413 22.545603,49.912927 C 25.042074,49.959186 27.610367,49.805200 30.014637,50.086825 C 33.670253,49.557318 37.463789,50.128731 41.184088,49.942999 C 40.746802,48.323089 38.292308,48.411214 36.453949,48.612340 C 34.059256,48.773340 32.745986,48.527565 31.886544,47.604948 C 31.689203,47.648621 31.374795,47.422904 31.289853,47.725234 z M 31.235607,48.589787 C 30.152026,48.848337 30.464395,47.971323 31.235607,48.589787 z M 29.261099,50.830105 C 24.592524,51.425062 19.723764,50.742865 14.973042,51.040605 C 16.015103,52.319166 18.037138,52.642263 19.996102,52.401336 C 27.635933,52.477226 35.279279,52.398280 42.919918,52.356228 C 43.477983,50.996925 41.353059,50.809825 39.904234,50.949984 C 36.465214,50.798689 32.852512,51.578366 29.554021,50.694784 L 29.265162,50.828229 L 29.261099,50.830105 z " />
  </g>
</svg>
