<?xml version="1.0" encoding="UTF-8" standalone="no"?>
<!-- Created with Inkscape (http://www.inkscape.org/) -->
<svg
   xmlns:svg="http://www.w3.org/2000/svg"
   xmlns="http://www.w3.org/2000/svg"
   xmlns:xlink="http://www.w3.org/1999/xlink"
   id="svg1291"
   height="60.000000"
   width="60.000000"
   y="0.0000000"
   x="0.0000000"
   version="1.0">
  <defs
     id="defs3">
    <linearGradient
       id="linearGradient5234">
      <stop
         id="stop5236"
         offset="0.0000000"
         style="stop-color:#ffffff;stop-opacity:1.0000000;" />
      <stop
         id="stop5238"
         offset="1.0000000"
         style="stop-color:#d9cce6;stop-opacity:1.0000000;" />
    </linearGradient>
    <linearGradient
       id="linearGradient2138">
      <stop
         id="stop2140"
         offset="0.0000000"
         style="stop-color:#d9cce6;stop-opacity:1.0000000;" />
      <stop
         id="stop2142"
         offset="1.0000000"
         style="stop-color:#73667f;stop-opacity:1.0000000;" />
    </linearGradient>
    <linearGradient
       gradientTransform="matrix(0.919753,0.000000,0.000000,0.919631,0.891177,1.044804)"
       gradientUnits="userSpaceOnUse"
       xlink:href="#linearGradient2138"
       id="linearGradient3704"
       y2="57.040970"
       x2="51.379238"
       y1="3.5595675"
       x1="1.7733183" />
    <linearGradient
       gradientTransform="matrix(0.919753,0.000000,0.000000,0.919631,-61.10882,1.044804)"
       gradientUnits="userSpaceOnUse"
       xlink:href="#linearGradient2138"
       id="linearGradient4469"
       y2="57.040970"
       x2="51.379238"
       y1="3.5595675"
       x1="1.7733183" />
    <linearGradient
       gradientTransform="matrix(0.919753,0.000000,0.000000,0.919631,-57.10882,3.044804)"
       gradientUnits="userSpaceOnUse"
       xlink:href="#linearGradient2138"
       id="linearGradient4473"
       y2="57.040970"
       x2="51.379238"
       y1="3.5595675"
       x1="1.7733183" />
    <linearGradient
       gradientTransform="matrix(0.919753,0.000000,0.000000,0.919631,0.797430,0.826054)"
       gradientUnits="userSpaceOnUse"
       xlink:href="#linearGradient5234"
       id="linearGradient5240"
       y2="57.040970"
       x2="51.379238"
       y1="3.5595675"
       x1="1.7733183" />
    <linearGradient
       gradientTransform="matrix(0.919753,0.000000,0.000000,0.919631,0.797430,0.826054)"
       gradientUnits="userSpaceOnUse"
       xlink:href="#linearGradient5234"
       id="linearGradient1316"
       y2="57.040970"
       x2="51.379238"
       y1="3.5595675"
       x1="1.7733183" />
    <linearGradient
       gradientTransform="matrix(0.919753,0.000000,0.000000,0.919631,0.891177,1.044804)"
       gradientUnits="userSpaceOnUse"
       xlink:href="#linearGradient2138"
       id="linearGradient1319"
       y2="57.040970"
       x2="51.379238"
       y1="3.5595675"
       x1="1.7733183" />
    <linearGradient
       gradientTransform="matrix(0.919753,0.000000,0.000000,0.919631,0.891177,1.044804)"
       gradientUnits="userSpaceOnUse"
       xlink:href="#linearGradient2138"
       id="linearGradient2096"
       y2="57.040970"
       x2="51.379238"
       y1="3.5595675"
       x1="1.7733183" />
    <linearGradient
       gradientTransform="matrix(0.919753,0.000000,0.000000,0.919631,0.797430,0.826054)"
       gradientUnits="userSpaceOnUse"
       xlink:href="#linearGradient5234"
       id="linearGradient2098"
       y2="57.040970"
       x2="51.379238"
       y1="3.5595675"
       x1="1.7733183" />
  </defs>
  <g
     id="g2090"
     transform="matrix(1.031030,0.000000,0.000000,1.031024,-1.212818e-4,-1.099515e-2)">
    <path
       id="path2080"
       style="fill:#000000;fill-opacity:0.31901839;stroke:none;stroke-width:1.7822020;stroke-miterlimit:4.0000000;stroke-opacity:1.0000000"
       d="M 9.6303370,57.362819 C 9.2881820,55.659561 12.322623,48.192637 15.797942,43.190537 C 16.046245,42.833150 15.938494,42.554490 15.260163,41.799770 C 11.271589,37.362032 10.013620,35.485649 8.2093730,31.282832 C 7.0758599,28.642423 5.8817040,24.973256 5.5715320,23.177793 C 5.4213584,22.308500 5.5010279,22.114981 6.2299800,21.578411 C 7.1733735,20.883997 7.8044010,21.167135 8.1335870,21.760275 C 8.6602840,22.808528 11.358680,26.553778 12.969756,28.308802 C 14.608755,30.094245 19.536443,34.106392 21.008807,34.854231 C 22.692208,35.709267 24.966851,35.359720 27.287243,34.471158 C 32.210676,32.585791 36.718883,32.303931 41.459320,33.170119 C 43.326623,33.511319 43.852150,33.738555 44.728064,33.503730 C 46.308074,33.080150 49.916092,29.897853 51.701334,27.353262 C 53.236428,25.165220 55.135492,21.085885 55.135492,19.976429 C 55.135492,19.111719 56.059900,18.590226 56.614293,19.142184 C 57.176700,19.702118 57.765116,24.483572 57.528193,26.568494 C 57.195875,29.492901 55.342118,33.697546 53.205025,36.374198 C 52.730186,36.968926 51.908443,37.621665 53.820456,39.815493 C 55.088272,41.205155 56.121586,42.650653 56.643881,43.691711 C 58.192122,46.777739 58.625152,48.974765 57.742173,49.264037 C 57.562419,49.322924 56.587882,48.672228 55.576532,47.818045 C 52.267237,45.023023 51.472679,44.665259 44.658693,42.902084 C 35.166056,40.445787 27.496906,41.760448 20.931215,46.969488 C 18.381042,48.992728 13.337589,53.961595 11.747585,56.327662 C 11.053645,57.360307 10.331454,58.205197 10.142716,58.205197 C 9.9539780,58.205197 9.7234080,57.826129 9.6303370,57.362819 z M 26.395322,23.616653 C 25.467667,23.348801 23.912111,22.702711 23.323893,22.319949 C 22.156895,21.588090 19.654058,19.340761 19.654058,18.560266 C 19.654058,17.793913 19.668349,17.792065 21.444595,18.328540 C 23.295678,18.887618 25.225389,18.843434 27.863846,18.181560 C 30.486931,17.523541 31.802601,16.756940 32.630689,15.669023 C 32.958286,15.141292 33.210172,14.570459 33.332685,14.570459 C 33.455194,14.570459 34.216336,15.147601 35.109454,15.683045 C 36.330811,16.327561 37.052864,16.516935 38.495865,16.513487 C 40.875631,16.507796 43.871146,15.415792 44.862014,14.192739 C 45.127503,13.865041 45.347515,13.519277 45.350932,13.424377 C 45.362690,13.097777 41.022270,11.711210 38.372610,11.195123 C 32.576538,10.066193 21.618264,11.072706 12.390144,13.581606 C 10.930377,13.978482 8.9144230,14.484561 7.9102462,14.706227 C 6.9060701,14.927893 5.5368324,15.301624 4.8674955,15.536742 C 3.5440336,16.001635 2.8911780,15.773760 2.8911780,14.846922 C 3.0228522,13.840131 6.2310305,11.782142 6.9790604,11.093918 C 10.571545,7.7886611 21.284120,3.8598865 28.594264,3.1666710 C 36.793232,2.3891691 43.856914,3.3272132 49.408175,5.9307201 C 52.998721,7.6146658 55.312566,10.244015 55.814448,13.210521 C 56.035478,14.516983 55.113439,16.952549 53.834789,18.439800 C 52.783811,19.662233 49.672505,21.930307 48.150959,22.583184 C 46.809938,23.158603 44.310777,23.786760 42.257273,23.804408 C 41.126917,23.817524 39.140351,23.216274 38.117997,22.631034 L 36.379847,21.512554 L 35.282986,22.586346 C 34.679710,23.100458 33.699131,23.527312 33.103914,23.704856 C 31.562877,24.164533 28.373370,24.187803 26.395322,23.616653 z " />
    <path
       id="path1368"
       style="fill:url(#linearGradient2096);fill-opacity:1.0000000;stroke:none;stroke-width:1.7822020;stroke-miterlimit:4.0000000;stroke-opacity:1.0000000"
       d="M 7.6303370,55.362819 C 7.2881820,53.659561 10.322623,46.192637 13.797942,41.190537 C 14.046245,40.833150 13.938494,40.554490 13.260163,39.799770 C 9.2715890,35.362032 8.0136200,33.485649 6.2093730,29.282832 C 5.0758599,26.642423 3.8817040,22.973256 3.5715320,21.177793 C 3.4213584,20.308500 3.5010279,20.114981 4.2299800,19.578411 C 5.1733735,18.883997 5.8044010,19.167135 6.1335870,19.760275 C 6.6602840,20.808528 9.3586800,24.553778 10.969756,26.308802 C 12.608755,28.094245 17.536443,32.106392 19.008807,32.854231 C 20.692208,33.709267 22.966851,33.359720 25.287243,32.471158 C 30.210676,30.585791 34.718883,30.303931 39.459320,31.170119 C 41.326623,31.511319 41.852150,31.738555 42.728064,31.503730 C 44.308074,31.080150 47.916092,27.897853 49.701334,25.353262 C 51.236428,23.165220 53.135492,19.085885 53.135492,17.976429 C 53.135492,17.111719 54.059900,16.590226 54.614293,17.142184 C 55.176700,17.702118 55.765116,22.483572 55.528193,24.568494 C 55.195875,27.492901 53.342118,31.697546 51.205025,34.374198 C 50.730186,34.968926 49.908443,35.621665 51.820456,37.815493 C 53.088272,39.205155 54.121586,40.650653 54.643881,41.691711 C 56.192122,44.777739 56.625152,46.974765 55.742173,47.264037 C 55.562419,47.322924 54.587882,46.672228 53.576532,45.818045 C 50.267237,43.023023 49.472679,42.665259 42.658693,40.902084 C 33.166056,38.445787 25.496906,39.760448 18.931215,44.969488 C 16.381042,46.992728 11.337589,51.961595 9.7475850,54.327662 C 9.0536450,55.360307 8.3314540,56.205197 8.1427160,56.205197 C 7.9539780,56.205197 7.7234080,55.826129 7.6303370,55.362819 z M 24.395322,21.616653 C 23.467667,21.348801 21.912111,20.702711 21.323893,20.319949 C 20.156895,19.588090 17.654058,17.340761 17.654058,16.560266 C 17.654058,15.793913 17.668349,15.792065 19.444595,16.328540 C 21.295678,16.887618 23.225389,16.843434 25.863846,16.181560 C 28.486931,15.523541 29.802601,14.756940 30.630689,13.669023 C 30.958286,13.141292 31.210172,12.570459 31.332685,12.570459 C 31.455194,12.570459 32.216336,13.147601 33.109454,13.683045 C 34.330811,14.327561 35.052864,14.516935 36.495865,14.513487 C 38.875631,14.507796 41.871146,13.415792 42.862014,12.192739 C 43.127503,11.865041 43.347515,11.519277 43.350932,11.424377 C 43.362690,11.097777 39.022270,9.7112099 36.372610,9.1951232 C 30.576538,8.0661926 19.618264,9.0727063 10.390144,11.581606 C 8.9303770,11.978482 6.9144230,12.484561 5.9102462,12.706227 C 4.9060701,12.927893 3.5368324,13.301624 2.8674955,13.536742 C 1.5440336,14.001635 0.89117800,13.773760 0.89117800,12.846922 C 1.0228522,11.840131 4.2310305,9.7821424 4.9790604,9.0939184 C 8.5715450,5.7886611 19.284120,1.8598865 26.594264,1.1666710 C 34.793232,0.38916906 41.856914,1.3272132 47.408175,3.9307201 C 50.998721,5.6146658 53.312566,8.2440146 53.814448,11.210521 C 54.035478,12.516983 53.113439,14.952549 51.834789,16.439800 C 50.783811,17.662233 47.672505,19.930307 46.150959,20.583184 C 44.809938,21.158603 42.310777,21.786760 40.257273,21.804408 C 39.126917,21.817524 37.140351,21.216274 36.117997,20.631034 L 34.379847,19.512554 L 33.282986,20.586346 C 32.679710,21.100458 31.699131,21.527312 31.103914,21.704856 C 29.562877,22.164533 26.373370,22.187803 24.395322,21.616653 z " />
    <path
       id="path4467"
       style="fill:url(#linearGradient2098);fill-opacity:1.0000000;stroke:none;stroke-width:1.7822020;stroke-miterlimit:4.0000000;stroke-opacity:1.0000000"
       d="M 32.437500,0.68750000 C 30.535562,0.66821478 28.549742,0.74312451 26.500000,0.93750000 C 19.189856,1.6307155 8.4674840,5.5697423 4.8750000,8.8750000 C 4.1269700,9.5632240 0.94417400,11.618209 0.81250000,12.625000 C 0.81250000,13.551838 1.4577880,13.777393 2.7812500,13.312500 C 3.4505860,13.077382 4.8083220,12.721666 5.8125000,12.500000 C 6.1362200,12.428541 6.7685150,12.242387 7.2500000,12.125000 C 7.8978210,11.635810 8.6059970,11.122496 8.8750000,10.875000 C 12.467484,7.5697433 23.189856,3.6307155 30.500000,2.9375000 C 37.932892,2.2326446 44.370439,3.0160480 49.656250,5.0937500 C 48.948856,4.5889494 48.174450,4.1229996 47.312500,3.7187500 C 43.149054,1.7661198 38.143315,0.74535566 32.437500,0.68750000 z M 42.875000,11.812500 C 42.825666,11.879186 42.835939,11.901247 42.781250,11.968750 C 41.790382,13.191803 38.786016,14.275559 36.406250,14.281250 C 34.963249,14.284698 34.252608,14.113266 33.031250,13.468750 C 32.138132,12.933306 31.372509,12.343750 31.250000,12.343750 C 31.127487,12.343750 30.858846,12.909769 30.531250,13.437500 C 29.703162,14.525417 28.404335,15.310730 25.781250,15.968750 C 23.142793,16.630624 21.194833,16.684077 19.343750,16.125000 C 17.567504,15.588525 17.562501,15.577397 17.562500,16.343750 C 17.562500,17.124245 19.692504,16.963525 21.468750,17.500000 C 23.319833,18.059077 24.767793,18.193124 27.406250,17.531250 C 30.029335,16.873230 32.390662,15.337917 33.218750,14.250000 C 33.546346,13.722269 35.127487,14.343750 35.250000,14.343750 C 35.372509,14.343750 37.275749,16.159698 38.718750,16.156250 C 42.348516,14.838059 42.415382,13.629303 43.406250,12.406250 C 43.671739,12.078552 44.802059,12.375227 42.875000,11.812500 z M 54.125000,17.125000 C 53.224881,17.969970 52.977328,20.532649 51.750000,21.312500 C 51.105735,22.661069 50.308775,24.105840 49.593750,25.125000 C 47.808508,27.669591 44.205010,30.857669 42.625000,31.281250 C 41.749086,31.516075 41.242303,31.278701 39.375000,30.937500 C 34.634563,30.071312 38.634563,32.071312 43.375000,32.937500 C 45.242303,33.278699 48.999086,30.016075 49.875000,29.781250 C 51.455010,29.357669 54.440404,18.720914 54.125000,17.125000 z " />
    <path
       id="path5242"
       style="fill:none;fill-opacity:1.0000000;stroke:#261933;stroke-width:1.7822020;stroke-miterlimit:4.0000000;stroke-opacity:1.0000000"
       d="M 7.6303372,55.362819 C 7.2881818,53.659561 10.322623,46.192637 13.797942,41.190537 C 14.046245,40.833150 13.938494,40.554490 13.260163,39.799770 C 9.2715885,35.362032 8.0136200,33.485649 6.2093734,29.282832 C 5.0758599,26.642423 3.8817040,22.973256 3.5715320,21.177793 C 3.4213584,20.308500 3.5010279,20.114981 4.2299800,19.578411 C 5.1733735,18.883997 5.8044010,19.167135 6.1335868,19.760275 C 6.6602840,20.808528 9.3586799,24.553778 10.969756,26.308802 C 12.608755,28.094245 17.536443,32.106392 19.008807,32.854231 C 20.692208,33.709267 22.966851,33.359720 25.287243,32.471158 C 30.210676,30.585791 34.718883,30.303931 39.459320,31.170119 C 41.326623,31.511319 41.852150,31.738555 42.728064,31.503730 C 44.308074,31.080150 47.916092,27.897853 49.701334,25.353262 C 51.236428,23.165220 53.135492,19.085885 53.135492,17.976429 C 53.135492,17.111719 54.059900,16.590226 54.614293,17.142184 C 55.176700,17.702118 55.765116,22.483572 55.528193,24.568494 C 55.195875,27.492901 53.342118,31.697546 51.205025,34.374198 C 50.730186,34.968926 49.908443,35.621665 51.820456,37.815493 C 53.088272,39.205155 54.121586,40.650653 54.643881,41.691711 C 56.192122,44.777739 56.625152,46.974765 55.742173,47.264037 C 55.562419,47.322924 54.587882,46.672228 53.576532,45.818045 C 50.267237,43.023023 49.472679,42.665259 42.658693,40.902084 C 33.166056,38.445787 25.496906,39.760448 18.931215,44.969488 C 16.381042,46.992728 11.337589,51.961595 9.7475854,54.327662 C 9.0536450,55.360307 8.3314540,56.205197 8.1427164,56.205197 C 7.9539785,56.205197 7.7234079,55.826129 7.6303372,55.362819 z M 24.395322,21.616653 C 23.467667,21.348801 21.912111,20.702711 21.323893,20.319949 C 20.156895,19.588090 17.654058,17.340761 17.654058,16.560266 C 17.654058,15.793913 17.668349,15.792065 19.444595,16.328540 C 21.295678,16.887618 23.225389,16.843434 25.863846,16.181560 C 28.486931,15.523541 29.802601,14.756940 30.630689,13.669023 C 30.958286,13.141292 31.210172,12.570459 31.332685,12.570459 C 31.455194,12.570459 32.216336,13.147601 33.109454,13.683045 C 34.330811,14.327561 35.052864,14.516935 36.495865,14.513487 C 38.875631,14.507796 41.871146,13.415792 42.862014,12.192739 C 43.127503,11.865041 43.347515,11.519277 43.350932,11.424377 C 43.362690,11.097777 39.022270,9.7112099 36.372610,9.1951232 C 30.576538,8.0661926 19.618264,9.0727063 10.390144,11.581606 C 8.9303768,11.978482 6.9144225,12.484561 5.9102462,12.706227 C 4.9060701,12.927893 3.5368324,13.301624 2.8674955,13.536742 C 1.5440336,14.001635 0.89117796,13.773760 0.89117796,12.846922 C 1.0228522,11.840131 4.2310305,9.7821424 4.9790604,9.0939184 C 8.5715448,5.7886611 19.284120,1.8598865 26.594264,1.1666710 C 34.793232,0.38916906 41.856914,1.3272132 47.408175,3.9307201 C 50.998721,5.6146658 53.312566,8.2440146 53.814448,11.210521 C 54.035478,12.516983 53.113439,14.952549 51.834789,16.439800 C 50.783811,17.662233 47.672505,19.930307 46.150959,20.583184 C 44.809938,21.158603 42.310777,21.786760 40.257273,21.804408 C 39.126917,21.817524 37.140351,21.216274 36.117997,20.631034 L 34.379847,19.512554 L 33.282986,20.586346 C 32.679710,21.100458 31.699131,21.527312 31.103914,21.704856 C 29.562877,22.164533 26.373370,22.187803 24.395322,21.616653 z " />
  </g>
</svg>
