<?xml version="1.0" encoding="UTF-8" standalone="no"?>
<!-- Created with Inkscape (http://www.inkscape.org/) -->
<svg
   xmlns:xml="http://www.w3.org/XML/1998/namespace"
   xmlns:dc="http://purl.org/dc/elements/1.1/"
   xmlns:cc="http://web.resource.org/cc/"
   xmlns:rdf="http://www.w3.org/1999/02/22-rdf-syntax-ns#"
   xmlns:svg="http://www.w3.org/2000/svg"
   xmlns="http://www.w3.org/2000/svg"
   xmlns:xlink="http://www.w3.org/1999/xlink"
   xmlns:sodipodi="http://inkscape.sourceforge.net/DTD/sodipodi-0.dtd"
   xmlns:inkscape="http://www.inkscape.org/namespaces/inkscape"
   sodipodi:docbase="/home/sudrien/trunk/pixmaps"
   sodipodi:docname="darimasenInfo.svg"
   inkscape:version="0.41+cvs"
   sodipodi:version="0.32"
   version="1.0"
   x="0.0000000"
   y="0.0000000"
   width="198.00000"
   height="256.00000"
   id="svg1275">
  <metadata
     id="metadata27">
    <rdf:RDF
       id="RDF29">
      <cc:Work
         id="Work31"
         rdf:about="">
        <dc:format
           id="format33">image/svg+xml</dc:format>
        <dc:type
           rdf:resource="http://purl.org/dc/dcmitype/StillImage"
           id="type35" />
      </cc:Work>
    </rdf:RDF>
  </metadata>
  <sodipodi:namedview
     inkscape:current-layer="svg1275"
     inkscape:window-y="23"
     inkscape:window-x="5"
     inkscape:cy="56.734489"
     inkscape:cx="104.06554"
     inkscape:zoom="1.3398437"
     id="base"
     pagecolor="#ffffff"
     bordercolor="#666666"
     borderopacity="1.0"
     inkscape:pageopacity="0.0"
     inkscape:pageshadow="2"
     inkscape:window-width="742"
     inkscape:window-height="512" />
  <defs
     id="defs3">
    <linearGradient
       id="linearGradient2049">
      <stop
         style="stop-color:#b8b8b8;stop-opacity:1.0000000;"
         offset="0.0000000"
         id="stop2051" />
      <stop
         style="stop-color:#ffffff;stop-opacity:1.0000000;"
         offset="1.0000000"
         id="stop2053" />
    </linearGradient>
    <linearGradient
       id="linearGradient2439">
      <stop
         style="stop-color:#002200;stop-opacity:1.0000000;"
         offset="0.0000000"
         id="stop2441" />
      <stop
         style="stop-color:#508350;stop-opacity:1.0000000;"
         offset="1.0000000"
         id="stop2443" />
    </linearGradient>
    <linearGradient
       x1="129.06119"
       y1="330.76971"
       x2="129.66743"
       y2="444.66751"
       id="linearGradient3207"
       xlink:href="#linearGradient2439"
       gradientUnits="userSpaceOnUse"
       gradientTransform="matrix(0.632356,0.000000,0.000000,0.632356,-13.67091,-184.4702)" />
    <linearGradient
       x1="29.854227"
       y1="70.903793"
       x2="141.06122"
       y2="194.05247"
       id="linearGradient2057"
       xlink:href="#linearGradient2049"
       gradientUnits="userSpaceOnUse" />
    <linearGradient
       y2="444.66751"
       x2="129.66743"
       y1="330.76971"
       x1="129.06119"
       gradientTransform="matrix(0.632356,0.000000,0.000000,0.632356,-13.67091,-184.4702)"
       gradientUnits="userSpaceOnUse"
       id="linearGradient2461"
       xlink:href="#linearGradient2439"
       inkscape:collect="always" />
  </defs>
  <rect
     width="198.00000"
     height="256.00000"
     rx="0.0000000"
     ry="0.0000000"
     x="0.0000000"
     y="-5.3400210e-15"
     style="fill:url(#linearGradient2057);fill-opacity:1.0000000;stroke:#000000;stroke-opacity:1.0000000"
     id="rect1287" />
  <g
     transform="matrix(1.133614,0.000000,0.000000,1.133614,3.474954,-2.886970)"
     id="layer1">
    <rect
       width="109.67054"
       height="21.277554"
       x="9.1647301"
       y="86.580460"
       style="fill:#ffffff;fill-opacity:1.0000000;fill-rule:evenodd;stroke:none;stroke-width:1.0000000px;stroke-linecap:butt;stroke-linejoin:miter;stroke-opacity:1.0000000"
       id="rect2843" />
    <path
       d="M -0.23325339,5.0000000 C -0.23325339,5.0000000 -0.23325339,15.512950 -0.23325339,20.137066 C 38.452555,20.192437 77.138362,20.256287 115.82418,20.314918 C 115.51692,27.421160 117.36607,37.396096 109.67846,41.281537 C 105.06085,45.348432 98.730022,44.236576 93.612606,41.874370 C 85.689412,38.583788 77.600479,33.142630 74.819717,24.603095 C 70.986421,24.067457 67.705354,24.306829 67.270941,28.871510 C 63.481078,36.173460 52.735150,38.563150 46.778601,32.487807 C 42.861760,30.675502 44.858595,25.544170 42.569475,23.061721 C 40.139803,22.670295 35.174287,21.275660 35.257832,24.958794 C 35.013503,32.896507 39.107446,41.206533 46.818119,44.146905 C 53.749888,47.396083 62.098151,46.619711 68.160204,41.874370 C 71.117109,38.996307 73.611001,37.842368 76.262283,41.894131 C 85.089190,50.781777 98.558889,56.168480 110.88388,52.248993 C 115.73922,49.990940 120.41084,46.526704 123.39272,42.052221 C 125.87305,36.292010 128.61715,30.440652 128.19468,23.950976 C 128.09807,17.633769 128.25469,11.317184 128.15667,5.0000000 C 85.446161,5.0000000 42.477251,5.0000000 -0.23325339,5.0000000 z M 12.216279,26.203750 C 10.487101,26.185153 8.2227922,26.687581 6.8214890,26.342081 C 4.8876683,26.960152 -0.41947891,24.985742 -0.23325339,27.606795 C -0.23325339,59.718722 -0.23325339,91.830663 -0.23325339,123.94256 C 42.483834,123.94256 85.200922,123.94256 127.91803,123.94256 C 127.91803,102.00106 127.91803,80.059561 127.91803,58.118067 C 122.98432,58.118067 118.05061,58.118067 113.11690,58.118067 C 113.61470,61.902451 113.93451,66.093579 112.04979,69.520271 C 79.819297,69.520271 47.588806,69.520271 15.358315,69.520271 C 13.263154,56.236554 14.647417,42.637905 14.390014,29.227212 C 15.132456,26.761238 13.945475,26.222349 12.216279,26.203750 z M 86.696194,91.988724 C 88.697720,92.102224 90.594970,92.887462 90.865799,95.249324 C 89.764681,95.483360 88.480005,95.220441 87.348303,95.624798 C 88.012730,94.785614 86.526138,93.870435 85.708122,94.043891 C 84.396466,94.144609 84.394166,95.366120 85.609335,95.723605 C 86.955285,95.845307 88.191464,96.205103 89.423232,96.830209 C 92.034350,98.071779 91.529538,102.13231 88.869926,102.97595 C 86.862058,103.67131 84.221920,103.84674 82.487068,102.42264 C 81.828004,101.87174 80.313684,99.694347 81.637323,99.577031 C 82.839866,99.657548 84.424058,98.813904 84.720071,100.38723 C 85.294536,101.75947 87.957298,101.54654 87.743533,99.912973 C 86.590043,98.140560 84.045058,98.854062 82.585855,97.403299 C 80.286295,95.733835 82.159213,92.076397 84.720071,92.067794 C 85.353695,91.990995 86.029022,91.950897 86.696194,91.988724 z M 50.177519,92.067794 C 50.951303,92.105038 51.897906,92.331175 52.450062,92.146824 C 52.450062,95.535778 52.450062,98.934902 52.450062,102.32383 C 52.850242,104.19702 50.115913,102.92341 49.011604,103.29213 C 49.011604,99.903181 49.011604,96.523836 49.011604,93.134883 C 48.811524,92.198299 49.403754,92.030510 50.177519,92.067794 z M 101.91230,92.067794 C 102.32993,92.246095 102.12056,93.086725 102.14943,93.609164 C 102.47996,95.146315 100.33914,94.367268 99.461914,94.498416 C 98.479889,94.643432 96.337885,93.995332 96.517491,95.585262 C 97.254816,97.014358 99.102365,96.144302 100.37093,96.296675 C 101.94385,95.617884 102.02092,97.482450 101.63565,98.470408 C 100.52840,98.782831 99.220108,98.516516 98.039115,98.529681 C 96.681725,98.206023 95.898835,99.589617 96.438454,100.76271 C 98.151905,100.76271 99.862911,100.76271 101.57637,100.76271 C 103.02863,100.55480 102.06485,102.43578 102.30753,103.29213 C 99.181795,103.29213 96.046695,103.29213 92.920959,103.29213 C 92.920959,99.579239 92.920959,95.859738 92.920959,92.146824 C 95.699738,92.141679 98.482466,92.164653 101.26020,92.146824 C 101.57071,92.017566 101.77309,92.008361 101.91230,92.067794 z M 29.210913,92.087531 C 29.993356,92.141076 30.858512,92.320703 31.483435,92.146824 C 32.566789,95.025921 33.660694,97.903369 34.744029,100.78246 C 35.463049,102.33476 36.183091,103.90380 33.775746,103.29213 C 32.328321,103.73625 31.925970,102.90173 31.384629,101.73099 C 30.109115,101.16954 27.661195,101.03318 27.116216,102.73882 C 26.765126,103.98245 24.634598,102.95515 23.559201,103.29213 C 24.868338,99.806680 26.182555,96.323930 27.491673,92.838480 C 27.736522,92.115811 28.428448,92.034007 29.210913,92.087531 z M 74.128085,92.087531 C 74.909492,92.141397 75.777281,92.321185 76.400610,92.146824 C 77.627816,95.404710 78.848976,98.670737 80.076199,101.92860 C 81.114860,103.46841 80.062904,103.43307 78.692922,103.27236 C 77.248702,103.74706 76.843666,102.89011 76.301803,101.73099 C 75.026289,101.16954 72.578385,101.03318 72.033388,102.73882 C 71.686099,103.98405 69.548381,102.95410 68.476375,103.29213 C 69.785493,99.806680 71.099749,96.323930 72.408849,92.838480 C 72.651896,92.115048 73.346682,92.033686 74.128085,92.087531 z M 113.07738,92.107309 C 113.68543,92.149477 114.34399,92.264244 114.85589,92.166602 C 114.85589,95.836482 114.85587,99.503694 114.85589,103.17355 C 113.80569,103.50109 112.67686,103.18767 111.59529,103.29213 C 110.20570,101.25479 108.81913,99.200878 107.42567,97.166169 C 107.42567,99.087153 107.42567,101.01543 107.42567,102.93642 C 106.83190,103.76151 105.22577,103.07726 104.20459,103.27236 C 104.20459,100.97934 104.20459,98.688526 104.20459,96.395483 C 104.45098,95.058823 103.70136,93.010609 104.59983,92.146824 C 105.54300,92.080296 106.48285,92.227020 107.42567,92.166602 C 108.82286,94.214052 110.21459,96.267089 111.61505,98.312328 C 111.61505,96.381192 111.61505,94.433656 111.61505,92.502541 C 111.91313,92.089843 112.46933,92.065141 113.07738,92.107309 z M 17.472762,92.127067 C 18.869098,92.142644 20.247220,92.298774 21.504042,92.937288 C 23.926501,94.879196 24.174297,98.892231 22.531630,101.41482 C 20.328928,104.23001 16.379914,103.04626 13.303155,103.29213 C 13.308218,99.584473 13.285426,95.873344 13.303155,92.166602 C 14.653722,92.240245 16.076428,92.111470 17.472762,92.127067 z M 41.166427,92.127067 C 42.630747,92.119750 44.093158,92.191484 45.434841,92.621086 C 47.614491,93.947435 47.093750,97.525040 44.703673,98.332065 C 45.959604,99.639304 46.779601,101.24559 47.569037,102.85739 C 47.759643,103.86795 44.884948,103.00514 43.893466,103.29213 C 42.970229,101.43530 41.999814,99.593076 40.514297,98.114711 C 40.317368,99.507204 40.211776,100.91672 40.277164,102.32383 C 40.689397,104.19602 37.923247,102.92394 36.818957,103.29213 C 36.818957,99.579239 36.818957,95.859738 36.818957,92.146824 C 38.221301,92.216588 39.702088,92.134383 41.166427,92.127067 z M 54.880680,92.146824 C 56.389138,92.146824 57.897556,92.146824 59.405994,92.146824 C 59.987728,94.396955 60.557187,96.656592 61.144983,98.905155 C 61.733985,96.657557 62.304909,94.396975 62.883969,92.146824 C 64.389885,92.146824 65.903352,92.146824 67.409268,92.146824 C 67.409268,95.292798 67.409268,98.446692 67.409268,101.59267 C 68.110669,103.79747 66.105657,103.29123 64.603190,103.29213 C 64.490603,101.30864 64.887521,99.268467 64.286999,97.344027 C 63.304419,98.835471 63.192242,100.67284 62.666589,102.34361 C 62.658707,103.97971 60.873486,103.09944 59.860511,103.27236 C 59.233621,101.30538 59.122742,99.145583 58.022715,97.363764 C 57.453594,99.102228 57.798935,100.94269 57.706525,102.73882 C 57.576637,104.00630 55.758778,102.99523 54.880680,103.27236 C 54.880680,99.567047 54.880680,95.852120 54.880680,92.146824 z M 86.518347,95.605040 C 86.678148,95.557907 87.024159,95.903393 86.459060,95.822393 C 86.429221,95.693617 86.465069,95.620738 86.518347,95.605040 z M 86.518347,98.984206 C 86.722712,99.041387 86.531275,99.465725 86.162641,99.102750 C 86.321159,99.002797 86.450214,98.965131 86.518347,98.984206 z M 67.547613,105.01135 C 67.698176,104.95354 67.830329,105.55843 67.409268,105.34728 C 67.443037,105.12717 67.497411,105.03064 67.547613,105.01135 z M 36.562074,105.24849 C 36.680632,105.14896 37.027939,105.65251 36.562074,105.58444 C 36.514043,105.36965 36.522535,105.28166 36.562074,105.24849 z "
       style="fill:url(#linearGradient2461);fill-opacity:1.0000000;fill-rule:evenodd;stroke:none;stroke-width:8.8750000;stroke-linecap:butt;stroke-linejoin:miter;stroke-miterlimit:4.0000000;stroke-opacity:0.79591835"
       id="rect1347" />
  </g>
  <text
     sodipodi:linespacing="100.00000%"
     x="86.210068"
     y="153.53935"
     style="font-size:14.000000;font-style:normal;font-variant:normal;font-weight:bold;font-stretch:normal;line-height:100.00000%;writing-mode:lr-tb;text-anchor:start;fill:#000000;fill-opacity:1.0000000;stroke:none;stroke-width:1.0000000px;stroke-linecap:butt;stroke-linejoin:miter;stroke-opacity:1.0000000;font-family:Bitstream Vera Sans"
     id="text1291"
     xml:space="preserve"><tspan
       x="86.210068"
       y="153.53935"
       id="tspan1295">Version 0.0.8</tspan></text>
  <text
     sodipodi:linespacing="100.00000%"
     x="51.608505"
     y="166.97377"
     style="font-size:12.000000;font-style:normal;font-variant:normal;font-weight:normal;font-stretch:normal;line-height:100.00000%;writing-mode:lr-tb;text-anchor:start;fill:#000000;fill-opacity:1.0000000;stroke:none;stroke-width:1.0000000px;stroke-linecap:butt;stroke-linejoin:miter;stroke-opacity:1.0000000;font-family:Bitstream Vera Sans"
     id="text1297"
     xml:space="preserve"><tspan
       x="51.608505"
       y="166.97377"
       id="tspan2602">&quot;It's not like RPN at all&quot;</tspan></text>
  <text
     sodipodi:linespacing="120.00000%"
     x="189.8419"
     y="193.84258"
     style="font-size:10.000000;font-style:normal;font-variant:normal;font-weight:normal;font-stretch:normal;line-height:120.00000%;writing-mode:lr-tb;text-anchor:end;fill:#000000;fill-opacity:1.0000000;stroke:none;stroke-width:1.0000000px;stroke-linecap:butt;stroke-linejoin:miter;stroke-opacity:1.0000000;font-family:Bitstream Vera Sans"
     id="text1311"
     xml:space="preserve"><tspan
       x="189.8419"
       y="193.84258"
       id="tspan1317">© 2004 -2005 by Sudrien</tspan><tspan
       x="189.8419"
       y="205.84258"
       id="tspan1319">under the terms of the</tspan><tspan
       x="189.8419"
       y="217.84258"
       id="tspan1321">GNU General Public License</tspan></text>
  <text
     sodipodi:linespacing="100.00000%"
     x="26.729599"
     y="249.07288"
     style="font-size:12.000000;font-style:normal;font-variant:normal;font-weight:normal;font-stretch:normal;line-height:100.00000%;writing-mode:lr-tb;text-anchor:start;fill:#000000;fill-opacity:1.0000000;stroke:none;stroke-width:1.0000000px;stroke-linecap:butt;stroke-linejoin:miter;stroke-opacity:1.0000000;font-family:Bitstream Vera Sans"
     id="text1323"
     xml:space="preserve"><tspan
       x="26.729599"
       y="249.07288"
       id="tspan1325">http:\\darimasen.berlios.de</tspan></text>
</svg>
