<?xml version="1.0" encoding="UTF-8" standalone="no"?>
<!-- Created with Inkscape (http://www.inkscape.org/) -->
<svg
   xmlns:dc="http://purl.org/dc/elements/1.1/"
   xmlns:cc="http://web.resource.org/cc/"
   xmlns:rdf="http://www.w3.org/1999/02/22-rdf-syntax-ns#"
   xmlns:svg="http://www.w3.org/2000/svg"
   xmlns="http://www.w3.org/2000/svg"
   xmlns:xlink="http://www.w3.org/1999/xlink"
   xmlns:sodipodi="http://inkscape.sourceforge.net/DTD/sodipodi-0.dtd"
   xmlns:inkscape="http://www.inkscape.org/namespaces/inkscape"
   id="svg1291"
   height="60.000000"
   width="60.000000"
   y="0.0000000"
   x="0.0000000"
   version="1.0"
   sodipodi:version="0.32"
   inkscape:version="0.41"
   sodipodi:docname="darimasen.svg"
   sodipodi:docbase="/home/sudrien/trunk/pixmaps/scalable">
  <metadata
     id="metadata18">
    <rdf:RDF
       id="RDF20">
      <cc:Work
         rdf:about=""
         id="Work22">
        <dc:format
           id="format24">image/svg+xml</dc:format>
        <dc:type
           id="type26"
           rdf:resource="http://purl.org/dc/dcmitype/StillImage" />
      </cc:Work>
    </rdf:RDF>
  </metadata>
  <sodipodi:namedview
     id="base"
     pagecolor="#ffffff"
     bordercolor="#666666"
     borderopacity="1.0"
     inkscape:pageopacity="0.0"
     inkscape:pageshadow="2"
     inkscape:window-width="866"
     inkscape:window-height="535"
     inkscape:zoom="8.5088515"
     inkscape:cx="29.999999"
     inkscape:cy="39.401969"
     inkscape:window-x="0"
     inkscape:window-y="0"
     inkscape:current-layer="svg1291" />
  <defs
     id="defs3">
    <linearGradient
       id="linearGradient5234">
      <stop
         id="stop5236"
         offset="0.0000000"
         style="stop-color:#ffffff;stop-opacity:1.0000000;" />
      <stop
         id="stop5238"
         offset="1.0000000"
         style="stop-color:#d9cce6;stop-opacity:1.0000000;" />
    </linearGradient>
    <linearGradient
       id="linearGradient2138">
      <stop
         id="stop2140"
         offset="0.0000000"
         style="stop-color:#4f824f;stop-opacity:1.0000000;" />
      <stop
         id="stop2142"
         offset="1.0000000"
         style="stop-color:#003300;stop-opacity:1.0000000;" />
    </linearGradient>
    <linearGradient
       gradientTransform="matrix(0.919753,0.000000,0.000000,0.919631,0.891177,1.044804)"
       gradientUnits="userSpaceOnUse"
       xlink:href="#linearGradient2138"
       id="linearGradient3704"
       y2="57.040970"
       x2="51.379238"
       y1="3.5595675"
       x1="1.7733183" />
    <linearGradient
       gradientTransform="matrix(0.919753,0.000000,0.000000,0.919631,-61.10882,1.044804)"
       gradientUnits="userSpaceOnUse"
       xlink:href="#linearGradient2138"
       id="linearGradient4469"
       y2="57.040970"
       x2="51.379238"
       y1="3.5595675"
       x1="1.7733183" />
    <linearGradient
       gradientTransform="matrix(0.919753,0.000000,0.000000,0.919631,-57.10882,3.044804)"
       gradientUnits="userSpaceOnUse"
       xlink:href="#linearGradient2138"
       id="linearGradient4473"
       y2="57.040970"
       x2="51.379238"
       y1="3.5595675"
       x1="1.7733183" />
    <linearGradient
       gradientTransform="matrix(0.919753,0.000000,0.000000,0.919631,0.797430,0.826054)"
       gradientUnits="userSpaceOnUse"
       xlink:href="#linearGradient5234"
       id="linearGradient5240"
       y2="57.040970"
       x2="51.379238"
       y1="3.5595675"
       x1="1.7733183" />
    <linearGradient
       gradientTransform="matrix(0.977050,0.000000,0.000000,0.976891,0.625790,0.778492)"
       gradientUnits="userSpaceOnUse"
       xlink:href="#linearGradient2138"
       id="linearGradient1314"
       y2="57.040970"
       x2="51.379238"
       y1="3.5595675"
       x1="1.7733183" />
  </defs>
  <path
     id="path1368"
     style="fill:url(#linearGradient1314);fill-opacity:1.0000000;stroke:#000000;stroke-width:1.2500000;stroke-miterlimit:4.0000000;stroke-opacity:1.0000000"
     d="M 7.7847810,58.478582 C 7.4213100,56.669271 10.644786,48.737424 14.336606,43.423871 C 14.600378,43.044232 14.485913,42.748221 13.765325,41.946510 C 9.5282750,37.232459 8.1919410,35.239244 6.2752960,30.774742 C 5.0711680,27.969930 3.8026200,24.072304 3.4731260,22.165048 C 3.3135970,21.241629 3.3982290,21.036061 4.1725930,20.466081 C 5.1747560,19.728430 5.8450950,20.029198 6.1947880,20.659269 C 6.7542960,21.772790 9.6207930,25.751236 11.332234,27.615535 C 13.073337,29.512148 18.308002,33.774108 19.872089,34.568511 C 21.660361,35.476786 24.076706,35.105474 26.541651,34.161586 C 31.771797,32.158828 36.560850,31.859419 41.596600,32.779540 C 43.580229,33.141984 44.138494,33.383369 45.068975,33.133923 C 46.747414,32.683969 50.580199,29.303528 52.476656,26.600500 C 54.107380,24.276220 56.124750,19.942889 56.124750,18.764353 C 56.124750,17.845803 57.106746,17.291839 57.695675,17.878164 C 58.293118,18.472962 58.918191,23.552130 58.666508,25.766869 C 58.313488,28.873362 56.344248,33.339806 54.074021,36.183118 C 53.569602,36.814877 52.696667,37.508258 54.727792,39.838683 C 56.074588,41.314871 57.172274,42.850372 57.727106,43.956252 C 59.371798,47.234428 59.831804,49.568251 58.893818,49.875534 C 58.702866,49.938088 57.667619,49.246877 56.593265,48.339508 C 53.077812,45.370457 52.233756,44.990417 44.995282,43.117459 C 34.911286,40.508222 26.764375,41.904740 19.789664,47.438116 C 17.080624,49.587332 11.722981,54.865582 10.033925,57.378971 C 9.2967550,58.475913 8.5295740,59.373409 8.3290790,59.373409 C 8.1285830,59.373409 7.8836490,58.970739 7.7847810,58.478582 z M 25.594166,22.631233 C 24.608722,22.346704 22.956260,21.660385 22.331398,21.253791 C 21.091700,20.476363 18.432945,18.089105 18.432945,17.260014 C 18.432945,16.445944 18.448126,16.443981 20.335026,17.013859 C 22.301425,17.607748 24.351350,17.560813 27.154174,16.857727 C 29.940668,16.158738 31.338301,15.344405 32.217975,14.188749 C 32.565980,13.628159 32.833558,13.021784 32.963703,13.021784 C 33.093844,13.021784 33.902402,13.634861 34.851159,14.203645 C 36.148602,14.888291 36.915636,15.089456 38.448532,15.085793 C 40.976549,15.079747 44.158674,13.919751 45.211270,12.620546 C 45.493298,12.272444 45.727015,11.905151 45.730645,11.804342 C 45.743136,11.457406 41.132322,9.9845058 38.317598,9.4362849 C 32.160450,8.2370622 20.519513,9.3062457 10.716514,11.971361 C 9.1658080,12.392948 7.0242660,12.930537 5.9575340,13.166006 C 4.8908010,13.401473 3.4362640,13.798475 2.7252300,14.048232 C 1.3193210,14.542071 0.62579500,14.300008 0.62579500,13.315461 C 0.76567200,12.245982 4.1737090,10.059854 4.9683380,9.3287785 C 8.7846220,5.8177222 20.164554,1.6443248 27.930095,0.90794669 C 36.639830,0.082034098 44.143555,1.0784849 50.040641,3.8440974 C 53.854866,5.6328925 56.312855,8.4259561 56.846003,11.577170 C 57.080802,12.964978 56.101323,15.552193 54.743017,17.132047 C 53.626567,18.430594 50.321437,20.839888 48.705105,21.533416 C 47.280542,22.144663 44.625692,22.811932 42.444262,22.830679 C 41.243489,22.844611 39.133167,22.205924 38.047123,21.584245 L 36.200693,20.396124 L 35.035501,21.536775 C 34.394643,22.082898 33.352978,22.536330 32.720681,22.724928 C 31.083642,23.213226 27.695440,23.237945 25.594166,22.631233 z " />
</svg>
